<?xml version="1.0" encoding="utf-8"?>
<svg viewBox="157.242 -178.295 354.683 330.46" xmlns="http://www.w3.org/2000/svg">
  <g transform="matrix(0.047236, 0, 0, -0.043994, 145.918961, 164.042526)" fill="#000000" stroke="none" style="">
    <path d="M3790 6829 c-531 -47 -1041 -237 -1452 -541 -365 -270 -664 -621 -865 -1015 -202 -395 -298 -775 -310 -1228 -10 -358 31 -642 138 -972 138 -424 373 -806 694 -1128 147 -148 232 -221 378 -324 530 -376 1195 -565 1837 -521 90 6 204 17 253 25 49 8 92 14 95 13 4 -1 14 1 22 4 43 16 202 48 210 43 6 -3 10 -2 10 3 0 5 26 16 58 25 31 8 95 29 141 46 46 17 89 28 94 24 6 -4 7 -1 2 7 -6 9 1 11 26 6 22 -4 27 -3 15 2 -17 7 -15 10 15 22 64 25 240 110 281 136 23 15 47 23 56 19 9 -3 13 -3 9 1 -10 11 12 34 27 28 8 -3 16 2 20 11 4 11 13 14 25 10 11 -3 22 -1 26 4 4 7 -1 9 -12 5 -16 -5 -16 -4 2 10 11 9 25 14 33 11 7 -2 11 -1 8 3 -6 11 254 208 270 204 6 -1 17 6 25 15 11 15 11 16 -1 5 -23 -20 -35 -14 -15 8 11 12 25 18 36 15 9 -3 20 -1 24 4 4 7 -1 8 -12 5 -10 -4 10 21 44 55 35 34 67 60 72 56 5 -3 13 0 17 6 4 8 3 9 -4 5 -21 -12 -13 8 11 29 96 86 336 396 380 490 8 17 21 36 30 44 10 7 17 19 17 25 0 7 7 21 16 32 8 10 12 13 8 5 -5 -9 -3 -12 5 -7 6 4 9 11 6 16 -3 4 20 57 49 117 60 120 138 311 157 385 7 26 17 44 22 41 6 -3 7 -1 4 4 -4 6 2 40 12 75 10 34 21 74 24 88 3 14 14 70 25 125 63 306 69 714 16 1035 -102 607 -397 1164 -846 1596 -594 571 -1418 865 -2228 793z m1841 -1396 c48 -19 78 -72 79 -138 0 -22 -22 -150 -50 -285 -27 -135 -99 -490 -159 -790 -229 -1136 -340 -1680 -350 -1717 -35 -128 -148 -176 -268 -115 -21 11 -207 145 -413 298 -465 344 -470 347 -475 343 -2 -2 -75 -74 -162 -160 -181 -179 -285 -274 -328 -300 -17 -11 -49 -19 -74 -19 -38 0 -49 5 -81 39 -34 36 -47 69 -144 368 -59 180 -135 412 -169 514 l-61 187 -90 27 c-50 15 -147 45 -216 67 -69 21 -152 47 -185 58 -312 96 -360 113 -386 140 -16 15 -31 40 -35 55 -9 38 10 96 44 128 28 27 72 44 1427 557 143 54 643 243 1110 420 468 178 864 326 880 330 47 12 62 11 106 -7z" style="fill: rgb(255, 255, 255);"/>
    <path d="M5009 4902 c-9 -4 -357 -221 -773 -482 -416 -261 -767 -482 -781 -490 -179 -109 -328 -207 -333 -218 -4 -13 32 -129 241 -764 34 -103 63 -186 64 -184 2 2 21 155 43 341 21 185 40 338 42 339 2 2 161 144 353 317 193 173 532 478 755 678 223 200 415 374 428 388 44 48 18 99 -39 75z" style="fill: rgb(255, 255, 255);"/>
    <path d="M6764 3039 c-4 -7 -3 -9 4 -5 5 3 13 0 15 -6 4 -9 6 -10 6 -1 1 17 -16 25 -25 12z"/>
    <path d="M6672 2780 c0 -14 2 -19 5 -12 2 6 2 18 0 25 -3 6 -5 1 -5 -13z"/>
    <path d="M6592 2625 c0 -16 2 -22 5 -12 2 9 2 23 0 30 -3 6 -5 -1 -5 -18z"/>
    <path d="M6536 2517 c3 -10 9 -15 12 -12 3 3 0 11 -7 18 -10 9 -11 8 -5 -6z"/>
    <path d="M6380 2287 c-28 -41 -31 -47 -26 -47 7 0 49 61 44 65 -2 2 -10 -6 -18 -18z"/>
    <path d="M6301 2114 c0 -11 3 -14 6 -6 3 7 2 16 -1 19 -3 4 -6 -2 -5 -13z"/>
    <path d="M6219 2083 c-12 -16 -12 -17 2 -6 9 7 20 9 24 5 5 -4 5 -1 1 6 -9 16 -11 15 -27 -5z"/>
    <path d="M6190 2045 c-7 -9 -8 -15 -2 -15 5 0 12 7 16 15 3 8 4 15 2 15 -2 0 -9 -7 -16 -15z"/>
    <path d="M6225 2049 c-4 -6 -5 -12 -2 -15 2 -3 7 2 10 11 7 17 1 20 -8 4z"/>
    <path d="M6151 2007 c-9 -15 -10 -18 -1 -10 7 6 20 9 29 6 9 -3 12 -1 6 4 -5 4 -12 11 -15 15 -3 4 -12 -3 -19 -15z"/>
    <path d="M5836 1697 c3 -10 9 -15 12 -12 3 3 0 11 -7 18 -10 9 -11 8 -5 -6z"/>
    <path d="M5706 1615 c-11 -8 -15 -15 -10 -15 6 0 19 7 30 15 10 8 15 14 9 14 -5 0 -19 -6 -29 -14z"/>
    <path d="M5170 1310 c-9 -6 -10 -10 -3 -10 6 0 15 5 18 10 8 12 4 12 -15 0z"/>
  </g>
</svg>