<?xml version="1.0" encoding="utf-8"?>
<svg viewBox="-124.774 -178.295 636.699 615.936" xmlns="http://www.w3.org/2000/svg" xmlns:bx="https://boxy-svg.com">
  <g transform="matrix(0.098392, 0, 0, -0.088582, -196.025208, 483.726135)" fill="#000000" stroke="none" style="">
    <g transform="matrix(2.315069, -0.000645, 0.0006, 2.484325, 1407.30481, 1289.520264)" fill="#000000" stroke="none" style="" bx:origin="0.648 0.477">
      <path d="M1030 2239 c-263 -18 -544 -154 -725 -352 -127 -139 -212 -293 -262 -473 -26 -92 -28 -112 -28 -289 0 -177 2 -197 28 -289 55 -198 147 -356 292 -501 218 -218 477 -326 786 -326 173 0 310 26 446 87 l54 23 -27 43 c-58 91 -71 221 -33 323 27 73 104 156 177 192 51 25 68 28 157 28 97 0 102 -1 168 -38 l68 -37 25 57 c14 31 38 100 52 153 25 88 27 110 27 285 0 177 -2 197 -28 289 -89 319 -299 574 -591 716 -180 88 -369 123 -586 109z m-65 -709 c-11 -5 -48 -20 -83 -34 -56 -21 -135 -66 -128 -73 1 -1 30 9 65 23 35 14 113 32 178 42 169 23 327 3 488 -63 15 -6 14 -3 -5 12 -33 27 -93 56 -160 79 -32 10 -48 20 -38 22 32 6 124 -18 195 -52 l69 -33 36 -94 c60 -159 98 -322 98 -423 0 -48 -3 -55 -42 -93 -49 -48 -132 -88 -199 -98 -45 -7 -48 -6 -74 29 -15 20 -26 38 -24 40 2 2 25 15 50 29 25 15 63 43 85 62 l39 35 -85 -39 c-217 -99 -395 -99 -609 0 -46 21 -78 32 -71 24 9 -10 114 -84 159 -112 2 -1 -9 -19 -24 -39 -26 -35 -29 -36 -74 -29 -67 10 -150 50 -198 98 -38 37 -43 46 -43 87 0 110 56 338 118 480 16 38 28 50 75 73 64 31 148 56 192 56 26 0 27 -2 10 -9z" style="fill: rgb(255, 255, 255);"/>
      <path d="M879 1151 c-50 -51 -34 -134 31 -161 84 -35 168 58 126 138 -32 61 -108 72 -157 23z" style="fill: rgb(255, 255, 255);"/>
      <path d="M1229 1151 c-49 -49 -38 -125 23 -157 85 -44 178 49 134 134 -32 61 -108 72 -157 23z" style="fill: rgb(255, 255, 255);"/>
      <path d="M1813 564 c-23 -8 -60 -35 -82 -59 -147 -160 -4 -409 210 -364 57 12 121 65 150 122 30 58 24 159 -14 215 -54 82 -171 120 -264 86z m115 -131 c3 -41 4 -43 37 -43 31 0 65 -20 65 -39 0 -17 -27 -31 -62 -31 -37 0 -38 -1 -38 -39 0 -42 -18 -65 -47 -59 -13 2 -19 14 -21 45 -3 41 -4 42 -44 45 -44 3 -66 24 -55 52 5 11 19 16 52 16 l45 0 0 43 c0 51 6 59 40 55 22 -3 25 -8 28 -45z" style="fill: rgb(255, 255, 255);"/>
    </g>
  </g>
</svg>