<svg xmlns="http://www.w3.org/2000/svg" version="1.0" width="512.000000" height="512.000000" preserveAspectRatio="xMidYMid meet" style=""><rect id="backgroundrect" width="100%" height="100%" x="0" y="0" fill="none" stroke="none"/>
<metadata>
Created by potrace 1.16, written by Peter Selinger 2001-2019
</metadata>

<g class="currentLayer" style=""><title>Layer 1</title><g transform="translate(0,512) scale(0.10000000149011612,-0.10000000149011612) " fill="#ffffff" stroke="none" id="svg_1" class="" fill-opacity="1">
<path d="M1 4138 c1 -541 3 -974 6 -963 81 360 268 743 509 1045 87 109 275 297 384 384 302 241 685 428 1045 509 11 3 -422 5 -962 6 l-983 1 1 -982z" id="svg_2" fill="#ffffff" fill-opacity="1"/>
<path d="M3175 5113 c360 -81 745 -269 1045 -509 109 -88 296 -275 384 -384 240 -301 430 -690 509 -1045 3 -11 5 422 6 963 l1 982 -982 -1 c-541 -1 -974 -3 -963 -6z" id="svg_3" fill="#ffffff" fill-opacity="1"/>
<path d="M1362 3939 c-49 -153 -56 -272 -22 -403 11 -44 20 -103 20 -132 0 -48 -5 -60 -53 -126 -163 -228 -238 -528 -193 -778 72 -402 355 -709 780 -846 84 -27 275 -74 302 -74 2 0 4 -24 4 -54 0 -51 -5 -62 -64 -150 -60 -88 -106 -195 -106 -247 0 -30 -85 -49 -220 -49 -187 0 -245 32 -348 189 -68 103 -166 203 -246 250 -57 34 -164 76 -172 68 -3 -2 -1 -43 2 -90 l7 -87 36 -6 c82 -15 156 -77 241 -204 106 -157 208 -239 354 -286 76 -24 89 -25 203 -18 l123 7 0 -452 0 -451 545 0 545 0 0 563 c0 604 -1 617 -53 717 -13 25 -47 77 -75 116 -48 65 -52 75 -52 127 0 31 2 57 4 57 2 0 46 9 98 19 554 114 887 422 989 913 47 229 -10 461 -180 731 -82 131 -86 154 -50 297 28 109 23 247 -13 368 -14 45 -28 86 -32 89 -12 12 -133 -25 -224 -67 -47 -22 -141 -72 -208 -111 l-123 -71 -78 5 c-43 3 -131 16 -196 30 -257 56 -438 56 -694 0 -65 -14 -154 -27 -198 -30 l-80 -4 -120 71 c-183 108 -302 161 -394 176 l-39 6 -20 -63z" id="svg_4" fill="#ffffff" fill-opacity="1"/>
<path d="M1 978 l-1 -978 853 1 c788 0 849 1 812 16 -401 158 -668 334 -950 624 -339 349 -565 751 -691 1229 l-22 85 -1 -977z" id="svg_5" fill="#ffffff" fill-opacity="1"/>
<path d="M5105 1913 c-4 -21 -22 -90 -42 -153 -131 -434 -343 -795 -658 -1119 -265 -273 -558 -470 -890 -601 l-100 -39 853 0 852 -1 0 975 c0 536 -2 975 -4 975 -2 0 -7 -17 -11 -37z" id="svg_6" fill="#ffffff" fill-opacity="1"/>
</g></g></svg>