<?xml version="1.0" standalone="no"?>
<!DOCTYPE svg PUBLIC "-//W3C//DTD SVG 20010904//EN"
 "http://www.w3.org/TR/2001/REC-SVG-20010904/DTD/svg10.dtd">
<svg version="1.0" xmlns="http://www.w3.org/2000/svg"
 width="512.000000pt" height="512.000000pt" viewBox="0 0 512.000000 512.000000"
 preserveAspectRatio="xMidYMid meet">
<metadata>
Created by potrace 1.16, written by Peter Selinger 2001-2019
</metadata>
<g transform="translate(0.000000,512.000000) scale(0.100000,-0.100000)"
fill="#000000" stroke="none">
<path d="M1 3953 c1 -1030 3 -1156 15 -1068 41 305 121 562 260 836 121 238
279 455 474 649 405 406 912 656 1488 735 84 11 -56 13 -1070 14 l-1168 1 1
-1167z"/>
<path d="M2885 5104 c305 -41 562 -121 836 -260 238 -121 454 -278 649 -474
407 -406 656 -912 735 -1488 11 -84 13 56 14 1071 l1 1167 -1167 -1 c-1030 -1
-1156 -3 -1068 -15z"/>
<path d="M1313 3993 c-55 -173 -63 -351 -24 -504 l22 -87 -53 -74 c-140 -194
-208 -418 -208 -677 1 -199 38 -355 121 -511 164 -305 460 -505 877 -591 53
-10 97 -21 99 -23 2 -2 -25 -47 -61 -99 -60 -89 -106 -196 -106 -248 0 -42
-190 -65 -283 -33 -60 20 -126 79 -175 158 -92 144 -198 243 -324 301 -52 24
-202 54 -213 43 -3 -3 0 -69 7 -146 l12 -142 35 -6 c82 -15 156 -77 241 -204
106 -157 208 -239 354 -286 85 -27 199 -35 284 -20 l42 8 0 -426 0 -426 595 0
595 0 0 588 c0 631 -1 642 -53 742 -13 25 -47 78 -77 118 -29 40 -51 75 -48
77 2 3 47 13 99 24 555 114 888 422 990 913 17 85 20 127 16 238 -7 217 -60
376 -196 593 l-71 114 21 79 c16 60 21 109 21 204 1 126 -5 166 -44 297 l-21
73 -71 -6 c-126 -11 -232 -53 -464 -186 l-122 -71 -118 26 c-195 43 -269 51
-452 51 -182 0 -257 -8 -452 -51 l-117 -26 -43 25 c-24 13 -88 51 -143 83
-170 98 -273 136 -410 150 l-61 6 -21 -68z"/>
<path d="M1 1168 l-1 -1168 963 1 c529 1 953 4 942 6 -65 16 -241 79 -333 119
-459 199 -875 561 -1158 1006 -207 326 -348 716 -398 1098 -12 93 -14 -24 -15
-1062z"/>
<path d="M5110 2296 c0 -64 -49 -320 -84 -443 -52 -180 -99 -300 -181 -468
-132 -269 -277 -474 -490 -694 -311 -320 -648 -530 -1055 -657 l-105 -33 963
-1 962 0 0 1165 c0 641 -2 1165 -5 1165 -3 0 -5 -15 -5 -34z"/>
</g>
</svg>
