<?xml version="1.0" encoding="utf-8"?>
<svg viewBox="-124.774 -178.295 636.699 615.936" xmlns="http://www.w3.org/2000/svg">
  <g transform="matrix(0.1, 0, 0, -0.1, -57.056576, 384.00119)" fill="#000000" stroke="none">
    <path d="M2315 5109 c-800 -83 -1501 -518 -1927 -1196 -604 -961 -490 -2237 274 -3068 425 -462 951 -737 1583 -827 119 -17 512 -16 635 1 622 86 1148 360 1572 820 349 378 572 861 650 1406 17 118 17 512 0 630 -59 416 -191 769 -410 1099 -92 140 -185 254 -315 385 -399 404 -893 653 -1462 737 -123 18 -478 26 -600 13z m1060 -908 c479 -67 765 -359 827 -842 19 -148 19 -1450 0 -1598 -63 -490 -353 -780 -843 -843 -148 -19 -1450 -19 -1598 0 -490 63 -780 353 -843 843 -19 148 -19 1450 0 1598 44 345 199 589 463 730 135 72 279 107 489 121 183 12 1408 4 1505 -9z" style="fill: rgb(255, 255, 255);"/>
    <path d="M1872 3909 c-232 -15 -370 -68 -484 -186 -116 -121 -161 -244 -178 -492 -13 -189 -13 -1153 0 -1342 17 -253 67 -384 188 -502 120 -115 244 -160 491 -177 189 -13 1153 -13 1342 0 247 17 371 62 491 177 78 76 129 166 158 279 31 119 40 325 40 894 0 569 -9 775 -40 894 -29 113 -80 203 -158 279 -120 115 -244 160 -491 177 -167 11 -1189 11 -1359 -1z m1673 -291 c62 -32 96 -96 96 -175 0 -176 -216 -260 -338 -132 -39 42 -53 77 -53 136 0 151 158 242 295 171z m-822 -222 c396 -76 687 -430 687 -836 0 -471 -379 -850 -850 -850 -470 0 -850 380 -850 850 0 349 211 661 536 791 42 17 107 37 143 44 89 18 243 18 334 1z" style="fill: rgb(255, 255, 255);"/>
    <path d="M2421 3095 c-179 -50 -325 -185 -383 -353 -33 -96 -33 -268 0 -364 45 -130 167 -265 288 -319 127 -57 298 -64 425 -17 128 48 257 166 310 284 56 124 63 295 19 422 -50 142 -190 282 -332 332 -83 29 -249 37 -327 15z" style="fill: rgb(255, 255, 255);"/>
  </g>
</svg>