<?xml version="1.0" encoding="utf-8"?>
<svg viewBox="128.724 118.398 229.472 217.082" xmlns="http://www.w3.org/2000/svg">
  <g transform="matrix(0.052521, 0, 0, -0.049419, 76.2332, 379.178711)" fill="#000000" stroke="none" style="">
    <path d="M 2970.06 5064.117 C 2203.337 4975.788 1551.018 4420.093 1326.611 3663.14 C 1051.604 2739.592 1482.817 1743.366 2338.642 1319.607 C 3209.867 888.021 4263.699 1177.609 4806.015 1996.057 C 5129.425 2485.783 5220.727 3100.737 5053.522 3663.14 C 4781.814 4579.981 3902.888 5171.455 2970.06 5064.117 Z M 3512.376 4841.616 C 4012.891 4743.224 4447.405 4430.156 4701.512 3985.152 C 4919.318 3602.763 4988.62 3152.17 4895.117 2716.111 C 4817.016 2348.257 4602.509 1987.111 4319.8 1745.602 C 3719.183 1233.513 2882.057 1180.963 2235.239 1613.667 C 1651.121 2005.001 1351.912 2701.576 1468.516 3395.915 C 1601.619 4178.584 2223.138 4771.175 3008.561 4865.096 C 3130.665 4878.513 3379.273 4867.332 3512.376 4841.616 Z" style="fill: rgb(255, 255, 255);"/>
    <g transform="matrix(0.8432, 0, 0, 0.670209, 1480.594482, 1827.69812)" fill="#000000" stroke="none" style="">
      <path d="M2450 3745 c0 -5 8 -17 18 -28 17 -20 17 -20 -17 -2 -85 43 -233 24 -330 -43 -67 -46 -75 -62 -29 -62 32 0 58 -14 58 -32 0 -4 -30 -6 -67 -6 -58 2 -74 -2 -110 -25 -44 -28 -93 -103 -132 -204 -19 -48 -19 -53 -4 -68 11 -11 28 -15 50 -13 l35 4 -56 -48 c-59 -52 -66 -66 -95 -203 l-20 -90 27 -22 c34 -28 36 -28 78 3 19 15 34 24 34 21 0 -4 -18 -35 -40 -69 -51 -80 -51 -117 -4 -318 l6 -25 20 25 c11 14 38 59 59 101 45 90 46 90 197 90 l103 0 -23 39 c-13 22 -49 60 -82 85 -46 35 -67 45 -96 45 -36 0 -70 20 -70 41 0 5 20 9 45 9 51 0 80 22 91 67 11 41 -11 156 -32 168 -31 18 -64 57 -64 77 0 11 6 29 12 41 12 21 13 21 18 -13 3 -23 13 -39 31 -49 25 -14 29 -13 69 19 43 34 79 97 80 138 0 13 -7 37 -16 54 -10 19 -13 40 -9 57 l7 26 9 -24 c20 -51 25 -52 111 -16 44 19 101 50 126 70 25 19 47 33 50 31 7 -8 -14 -37 -41 -55 l-27 -17 38 -22 c21 -11 64 -25 97 -30 53 -9 61 -7 93 14 48 33 59 30 28 -7 -14 -17 -26 -34 -26 -38 0 -13 57 -96 81 -118 28 -26 89 -53 119 -53 12 0 18 -4 15 -10 -4 -6 -16 -8 -27 -4 -13 4 -24 1 -29 -7 -13 -21 -11 -154 3 -184 l11 -25 25 22 25 23 -7 -56 c-12 -113 -54 -186 -124 -216 -19 -8 -69 -14 -120 -15 l-87 0 45 -21 c65 -30 169 -30 232 1 75 37 143 105 180 180 31 62 33 74 33 168 0 91 -2 104 -25 137 -36 52 -64 65 -90 42 -25 -23 -36 -14 -20 16 31 57 -16 205 -79 246 -43 29 -61 29 -62 1 0 -17 -5 -11 -18 20 -25 63 -63 106 -116 131 -47 22 -165 40 -165 26z" style="fill: rgb(255, 255, 255);"/>
      <path d="M2021 2702 c-39 -6 -45 -11 -56 -43 -7 -19 -22 -54 -34 -78 -18 -34 -22 -60 -22 -126 0 -85 9 -113 42 -134 16 -10 22 -5 44 38 13 27 29 52 35 56 13 8 13 7 -4 -46 -24 -74 -26 -113 -7 -138 l17 -22 24 38 c14 21 45 48 70 61 l45 24 -37 -33 c-35 -31 -53 -64 -73 -127 -7 -23 -6 -23 18 -7 24 15 140 55 162 55 5 0 -25 -23 -67 -50 -77 -50 -142 -115 -151 -150 -4 -15 5 -13 57 15 49 27 76 35 141 40 58 5 76 4 65 -4 -8 -6 -23 -11 -32 -11 -82 -1 -264 -115 -304 -192 -24 -46 -19 -60 20 -57 19 2 38 0 42 -4 4 -4 1 -7 -7 -7 -8 0 -36 -14 -63 -30 -35 -23 -53 -43 -71 -82 -13 -29 -22 -54 -20 -56 7 -7 129 53 196 97 68 44 96 51 101 24 3 -14 12 -9 51 26 26 24 47 39 47 33 0 -16 -31 -85 -52 -114 -35 -50 -4 -29 38 25 49 63 64 90 98 185 41 116 59 216 54 315 -2 48 -1 87 2 87 7 0 24 -70 35 -145 8 -54 -18 -205 -49 -289 -15 -38 -44 -101 -66 -141 -22 -40 -40 -77 -40 -82 0 -5 16 -17 36 -27 20 -9 75 -45 121 -79 46 -34 88 -62 93 -62 5 0 41 31 80 68 68 66 70 70 64 105 -4 20 -15 55 -25 76 -10 22 -17 41 -15 44 6 5 47 -37 62 -63 10 -18 14 -14 43 35 37 65 36 95 -9 178 -15 28 -24 52 -20 52 9 0 47 -44 66 -76 15 -24 20 -19 35 38 18 66 -6 123 -85 201 l-61 61 50 -29 c28 -15 69 -41 92 -57 l43 -29 -6 33 c-12 64 -66 177 -105 222 -43 49 -113 86 -199 106 -30 7 -68 16 -85 21 -29 7 -28 7 10 8 22 0 72 -8 110 -19 39 -10 71 -17 73 -15 6 5 -108 80 -163 108 -53 26 -140 46 -209 48 -34 1 -37 2 -16 8 14 4 54 6 90 3 l65 -5 -24 27 c-46 49 -102 68 -214 71 -56 2 -122 0 -146 -3z" style="fill: rgb(255, 255, 255);"/>
      <path d="M3040 2597 c-60 -24 -100 -71 -100 -116 0 -15 -18 -85 -41 -156 -32 -101 -40 -143 -39 -190 1 -33 2 -68 2 -77 -1 -33 13 -18 37 39 14 31 35 68 48 84 21 24 83 201 83 235 0 7 15 20 34 29 18 9 44 27 57 41 12 13 25 24 28 24 4 0 5 -20 3 -43 -3 -30 5 -68 23 -118 15 -41 30 -95 34 -122 8 -54 15 -62 54 -71 27 -6 27 -6 27 41 0 107 -22 338 -34 367 -24 57 -121 72 -216 33z" style="fill: rgb(255, 255, 255);"/>
      <path d="M1724 2499 c-26 -9 -125 -129 -182 -220 -35 -55 -42 -75 -42 -116 l0 -50 53 8 c60 10 81 30 91 86 3 21 15 53 26 71 18 30 23 32 72 31 48 0 51 -1 28 -12 -14 -6 -27 -12 -29 -14 -3 -2 4 -16 16 -31 11 -15 23 -40 27 -57 4 -16 29 -55 56 -85 26 -31 60 -74 75 -95 l28 -40 -7 35 c-4 19 -16 85 -26 145 -32 183 -39 209 -80 272 -42 64 -73 85 -106 72z" style="fill: rgb(255, 255, 255);"/>
      <path d="M1657 2115 c-43 -7 -86 -17 -95 -21 -9 -4 -53 -10 -97 -13 l-80 -6 3 -28 c3 -26 2 -27 -22 -16 -33 15 -56 -2 -56 -41 0 -49 7 -56 53 -52 120 8 211 25 240 42 18 11 46 20 63 20 30 0 32 -3 48 -58 9 -32 16 -67 16 -77 0 -10 23 -49 52 -87 l52 -68 14 26 c9 18 13 47 10 85 -4 54 -3 58 12 44 22 -20 23 -20 48 15 l22 29 -75 100 c-69 92 -100 123 -122 120 -4 -1 -43 -7 -86 -14z" style="fill: rgb(255, 255, 255);"/>
      <path d="M3003 2123 c-16 -6 -17 -57 -3 -84 18 -32 62 -48 151 -51 79 -3 85 -2 94 20 5 12 13 22 16 22 9 0 20 -95 13 -113 -3 -10 3 -20 18 -27 13 -7 33 -21 44 -32 22 -19 22 -19 27 14 4 18 9 65 13 104 7 77 -8 124 -45 144 -20 10 -304 13 -328 3z" style="fill: rgb(255, 255, 255);"/>
      <path d="M2923 2108 c-5 -7 -15 -32 -22 -56 -7 -24 -32 -85 -56 -137 -24 -52 -39 -95 -34 -95 12 0 119 55 139 72 9 7 30 31 47 52 l32 39 -29 34 c-18 21 -30 45 -30 62 0 17 -6 31 -16 35 -21 8 -20 8 -31 -6z" style="fill: rgb(255, 255, 255);"/>
      <path d="M1420 1914 c-8 -2 -32 -6 -54 -9 l-39 -6 6 -55 c3 -30 4 -54 2 -54 -3 0 -11 13 -20 30 -20 38 -49 54 -74 41 -26 -14 -60 -100 -67 -170 l-7 -60 59 -6 c33 -4 63 -7 68 -7 4 1 25 29 45 64 35 61 39 64 116 95 44 18 91 32 105 30 24 -2 25 -4 22 -74 -3 -77 7 -128 40 -205 16 -38 25 -48 44 -48 l23 0 -19 43 c-20 43 -28 151 -12 161 5 3 14 -25 21 -62 7 -37 18 -78 25 -90 l13 -24 40 46 c38 43 40 47 35 103 -3 47 -12 70 -46 123 -24 36 -53 82 -65 103 l-23 38 -112 -2 c-61 -2 -118 -4 -126 -5z" style="fill: rgb(255, 255, 255);"/>
      <path d="M3090 1873 c-108 -4 -123 -9 -110 -33 8 -14 8 -26 0 -40 -14 -27 -5 -40 29 -40 15 0 50 -7 77 -15 70 -21 120 -19 145 6 11 11 23 18 26 16 2 -3 7 -32 10 -64 5 -59 6 -60 53 -86 57 -32 60 -28 60 67 0 44 -6 74 -22 106 -20 40 -26 45 -54 43 -24 -2 -33 3 -42 22 -10 22 -18 25 -54 23 -24 -1 -77 -3 -118 -5z" style="fill: rgb(255, 255, 255);"/>
      <path d="M2854 1821 c-59 -34 -99 -83 -126 -153 -10 -28 -28 -68 -38 -89 -11 -21 -20 -41 -20 -44 0 -11 160 76 193 105 19 16 47 55 63 85 25 48 27 57 14 65 -13 9 -13 12 3 21 9 5 17 17 17 24 0 24 -51 17 -106 -14z" style="fill: rgb(255, 255, 255);"/>
      <path d="M1418 1739 c-21 -11 -38 -23 -38 -27 0 -12 47 -123 56 -132 5 -5 17 -10 27 -12 17 -3 19 7 23 95 5 110 2 113 -68 76z" style="fill: rgb(255, 255, 255);"/>
      <path d="M1971 1634 c-123 -58 -255 -150 -266 -184 -4 -13 3 -36 20 -65 14 -25 21 -45 15 -45 -21 0 -9 -26 19 -43 39 -23 48 -22 88 13 18 17 39 30 46 30 7 0 24 -14 39 -32 26 -32 26 -33 70 -19 58 18 93 17 113 -3 28 -27 73 -6 206 94 43 34 79 57 79 52 0 -16 -129 -139 -162 -155 -19 -9 -64 -21 -101 -27 -94 -15 -157 -37 -189 -67 -26 -24 -26 -27 -13 -54 8 -15 15 -46 15 -68 0 -33 -8 -48 -51 -95 -28 -31 -46 -56 -41 -56 6 0 38 9 71 19 77 24 125 60 152 114 29 57 47 75 99 102 67 34 290 271 290 308 0 46 -131 135 -242 165 -35 10 -39 8 -64 -21 -14 -17 -46 -66 -71 -109 -25 -43 -48 -78 -51 -78 -12 0 11 67 54 153 72 147 54 157 -125 71z" style="fill: rgb(255, 255, 255);"/>
      <path d="M2810 1569 c-74 -50 -189 -125 -255 -166 -124 -78 -181 -130 -216 -196 -27 -51 -22 -88 14 -105 52 -25 123 19 173 106 33 57 154 126 338 191 101 36 136 52 136 62 0 4 -20 22 -45 39 -54 37 -59 67 -20 124 13 20 21 36 17 36 -4 0 -68 -41 -142 -91z" style="fill: rgb(255, 255, 255);"/>
      <path d="M2992 1637 c-6 -7 -15 -24 -21 -38 -13 -37 20 -84 81 -115 28 -14 77 -52 110 -84 l61 -59 -19 -29 c-11 -17 -32 -46 -47 -65 -24 -30 -27 -40 -20 -67 l8 -32 49 72 c59 86 95 115 182 146 82 30 103 30 164 -1 27 -14 53 -25 57 -25 4 0 -13 21 -38 48 -25 26 -62 68 -82 94 -45 56 -154 119 -258 148 -85 23 -211 27 -227 7z" style="fill: rgb(255, 255, 255);"/>
      <path d="M1005 1580 c-134 -12 -222 -50 -313 -134 -96 -88 -197 -268 -248 -441 -32 -108 -44 -320 -25 -429 14 -78 61 -215 94 -268 l22 -37 -3 170 c-2 98 1 199 8 237 28 166 110 365 172 417 33 28 116 70 124 63 2 -2 -14 -49 -36 -104 -49 -125 -70 -230 -69 -336 1 -79 15 -173 18 -121 2 45 83 271 126 353 104 199 114 224 140 351 14 70 25 142 25 160 0 26 3 30 10 19 5 -8 10 -48 10 -88 0 -52 4 -74 14 -78 7 -3 38 10 67 29 30 19 87 51 127 71 89 45 112 67 112 107 0 25 -6 32 -37 46 -46 19 -208 25 -338 13z" style="fill: rgb(255, 255, 255);"/>
      <path d="M1404 1495 c-14 -25 -40 -55 -56 -67 -28 -19 -29 -23 -14 -34 9 -6 55 -21 102 -33 93 -23 155 -51 193 -85 l23 -21 -7 35 c-4 19 -19 50 -33 69 l-25 34 31 -5 c18 -2 32 -4 32 -2 0 1 -22 19 -50 40 -27 21 -48 39 -46 41 1 2 29 -8 62 -23 53 -23 57 -24 40 -6 -26 29 -169 102 -200 102 -19 0 -31 -10 -52 -45z" style="fill: rgb(255, 255, 255);"/>
      <path d="M1245 1373 c-11 -8 -26 -18 -33 -22 -10 -6 -6 -26 15 -93 19 -58 26 -92 20 -105 -5 -10 -43 -42 -85 -71 -139 -95 -138 -96 7 -46 168 56 224 92 171 109 -23 7 -27 35 -5 35 8 0 15 3 15 8 0 6 -79 194 -83 199 -1 1 -11 -5 -22 -14z" style="fill: rgb(255, 255, 255);"/>
      <path d="M1395 1331 c-3 -10 -14 -26 -25 -36 -31 -28 -23 -37 18 -20 53 23 69 40 52 59 -17 21 -37 20 -45 -3z" style="fill: rgb(255, 255, 255);"/>
      <path d="M3377 1325 c-76 -25 -131 -71 -173 -142 -25 -41 -25 -43 -10 -88 18 -51 21 -85 7 -85 -5 0 -11 14 -14 30 -7 31 -27 42 -27 15 0 -23 -76 -93 -245 -228 -82 -66 -154 -123 -159 -128 -16 -14 156 41 219 71 61 29 195 132 195 150 0 6 5 10 11 10 21 0 2 -95 -31 -160 -52 -103 -137 -183 -318 -297 -99 -63 -85 -61 71 8 214 94 312 169 438 332 149 193 204 312 197 426 -4 54 -8 67 -32 87 -33 29 -42 29 -129 -1z" style="fill: rgb(255, 255, 255);"/>
      <path d="M1691 1256 c-26 -42 -27 -86 -1 -119 12 -15 20 -40 20 -62 0 -20 8 -50 17 -68 l17 -32 7 39 c4 28 18 50 43 73 27 25 36 41 36 66 0 44 -30 88 -78 114 l-41 23 -20 -34z" style="fill: rgb(255, 255, 255);"/>
    </g>
  </g>
</svg>