<?xml version="1.0" encoding="utf-8"?>
<svg viewBox="-124.774 -178.295 636.699 615.936" xmlns="http://www.w3.org/2000/svg">
  <g transform="matrix(0.091043, 0, 0, -0.089025, -73.497421, 389.94278)" fill="#000000" stroke="none" style="">
    <path d="M2795 5994 c-337 -33 -561 -82 -828 -179 -818 -296 -1486 -964 -1782 -1782 -129 -354 -179 -647 -179 -1033 0 -254 7 -336 49 -565 191 -1023 932 -1895 1912 -2250 354 -129 647 -179 1033 -179 254 0 336 7 565 49 1023 191 1895 932 2250 1912 129 354 179 647 179 1033 0 254 -7 336 -49 565 -146 782 -615 1486 -1285 1932 -391 259 -795 411 -1280 479 -100 14 -501 26 -585 18z m-339 -903 c24 -15 96 -132 322 -524 319 -553 317 -547 269 -618 -32 -47 -347 -229 -398 -229 -69 0 -92 27 -247 295 -481 833 -460 791 -428 853 21 40 37 52 206 151 171 100 213 111 276 72z m-276 -878 l288 -498 -54 -50 c-104 -98 -149 -259 -125 -453 60 -493 442 -1054 793 -1163 87 -27 197 -27 272 1 32 12 61 18 66 14 10 -12 580 -1001 580 -1008 0 -17 -243 -128 -331 -151 -82 -22 -220 -21 -295 1 -334 96 -822 556 -1210 1139 -458 688 -754 1471 -754 1998 0 269 63 401 265 557 80 61 199 130 209 120 5 -5 138 -233 296 -507z m1795 -1752 c30 -18 52 -55 492 -820 180 -313 183 -299 -114 -469 -111 -64 -151 -82 -181 -82 -80 0 -84 7 -397 545 -264 457 -289 504 -290 547 0 32 6 55 20 74 12 15 97 72 190 126 185 107 220 117 280 79z" style="fill: rgb(255, 255, 255);"/>
  </g>
</svg>